<svg xmlns="http://www.w3.org/2000/svg" width="1024" height="1024" viewBox="0 0 100 100" fill="currentColor">
  <!-- Maporia M-Pin Symbol (1024px export for app icons) -->
  
  <path fill-rule="evenodd" d="
    M 50 2
    C 38 2, 28 6, 20 14
    C 12 22, 8 32, 8 42
    C 8 47, 10 51, 13 54
    C 16 57, 20 58.5, 25 59.5
    C 24 61, 23 62.5, 22.5 64
    C 22 65.5, 22 67, 22 68.5
    C 22 72, 23.5 75, 26 77
    C 28.5 79, 32 80, 36 80
    C 40 80, 43.5 79, 46 77
    C 48.5 75, 50 72, 50 68.5
    C 50 67, 50 65.5, 49.5 64
    C 49 62.5, 48 61, 47 59.5
    C 52 58.5, 56 57, 59 54
    C 62 51, 64 47, 64 42
    C 64 32, 60 22, 52 14
    C 44 6, 34 2, 50 2
    Z
    M 50 12
    C 43 12, 37 14, 32 19
    C 27 24, 24 30, 24 36
    C 24 39, 25 41.5, 26.5 43.5
    C 28 45.5, 30 46.5, 32.5 47.5
    C 31.5 48.5, 31 49.5, 30.5 50.5
    C 30 51.5, 30 52.5, 30 53.5
    C 30 55.5, 31 57, 32.5 58
    C 34 59, 36 59.5, 38.5 59.5
    C 41 59.5, 43 59, 44.5 58
    C 46 57, 47 55.5, 47 53.5
    C 47 52.5, 47 51.5, 46.5 50.5
    C 46 49.5, 45 48.5, 44 47.5
    C 46.5 46.5, 48.5 45.5, 50 43.5
    C 51.5 41.5, 52.5 39, 52.5 36
    C 52.5 30, 49.5 24, 44.5 19
    C 39.5 14, 33.5 12, 50 12
    Z
    M 18 60
    C 18 59, 18.5 58, 19.5 57.5
    C 20.5 57, 21.5 56.5, 23 56.5
    C 24.5 56.5, 25.5 57, 26 57.5
    C 26.5 58, 27 59, 27 60
    L 27 68
    C 27 69, 26.5 70, 26 70.5
    C 25.5 71, 24.5 71.5, 23 71.5
    C 21.5 71.5, 20.5 71, 19.5 70.5
    C 18.5 70, 18 69, 18 68
    Z
    M 27 60
    C 27 59, 27.5 58, 28.5 57.5
    C 29.5 57, 30.5 56.5, 32 56.5
    C 33.5 56.5, 34.5 57, 35 57.5
    C 35.5 58, 36 59, 36 60
    L 36 64
    C 36 65, 35.5 66, 35 66.5
    C 34.5 67, 33.5 67.5, 32 67.5
    C 30.5 67.5, 29.5 67, 28.5 66.5
    C 27.5 66, 27 65, 27 64
    Z
    M 36 60
    C 36 59, 36.5 58, 37.5 57.5
    C 38.5 57, 39.5 56.5, 41 56.5
    C 42.5 56.5, 43.5 57, 44 57.5
    C 44.5 58, 45 59, 45 60
    L 45 64
    C 45 65, 44.5 66, 44 66.5
    C 43.5 67, 42.5 67.5, 41 67.5
    C 39.5 67.5, 38.5 67, 37.5 66.5
    C 36.5 66, 36 65, 36 64
    Z
    M 45 60
    C 45 59, 45.5 58, 46.5 57.5
    C 47.5 57, 48.5 56.5, 50 56.5
    C 51.5 56.5, 52.5 57, 53 57.5
    C 53.5 58, 54 59, 54 60
    L 54 64
    C 54 65, 53.5 66, 53 66.5
    C 52.5 67, 51.5 67.5, 50 67.5
    C 48.5 67.5, 47.5 67, 46.5 66.5
    C 45.5 66, 45 65, 45 64
    Z
    M 54 60
    C 54 59, 54.5 58, 55.5 57.5
    C 56.5 57, 57.5 56.5, 59 56.5
    C 60.5 56.5, 61.5 57, 62 57.5
    C 62.5 58, 63 59, 63 60
    L 63 68
    C 63 69, 62.5 70, 62 70.5
    C 61.5 71, 60.5 71.5, 59 71.5
    C 57.5 71.5, 56.5 71, 55.5 70.5
    C 54.5 70, 54 69, 54 68
    Z
  "/>
</svg>
