<svg width="430" height="109" viewBox="0 0 430 109" fill="none" xmlns="http://www.w3.org/2000/svg">
<path d="M0 85V13H9.45L35.55 67.15L61.5 13H71.05V84.95H61.15V35.7L37.9 85H33.15L9.85001 35.7V85H0ZM100.309 86.5C96.3086 86.5 92.9586 85.7667 90.2586 84.3C87.5586 82.8 85.5086 80.8333 84.1086 78.4C82.7419 75.9333 82.0586 73.2333 82.0586 70.3C82.0586 67.5667 82.5419 65.1667 83.5086 63.1C84.4753 61.0333 85.9086 59.2833 87.8086 57.85C89.7086 56.3833 92.0419 55.2 94.8086 54.3C97.2086 53.6 99.9253 52.9833 102.959 52.45C105.992 51.9167 109.175 51.4167 112.509 50.95C115.875 50.4833 119.209 50.0167 122.509 49.55L118.709 51.65C118.775 47.4167 117.875 44.2833 116.009 42.25C114.175 40.1833 111.009 39.15 106.509 39.15C103.675 39.15 101.075 39.8167 98.7086 41.15C96.3419 42.45 94.6919 44.6167 93.7586 47.65L84.0086 44.65C85.3419 40.0167 87.8753 36.3333 91.6086 33.6C95.3753 30.8667 100.375 29.5 106.609 29.5C111.442 29.5 115.642 30.3333 119.209 32C122.809 33.6333 125.442 36.2333 127.109 39.8C127.975 41.5667 128.509 43.4333 128.709 45.4C128.909 47.3667 129.009 49.4833 129.009 51.75V85H119.759V72.65L121.559 74.25C119.325 78.3833 116.475 81.4667 113.009 83.5C109.575 85.5 105.342 86.5 100.309 86.5ZM102.159 77.95C105.125 77.95 107.675 77.4333 109.809 76.4C111.942 75.3333 113.659 73.9833 114.959 72.35C116.259 70.7167 117.109 69.0167 117.509 67.25C118.075 65.65 118.392 63.85 118.459 61.85C118.559 59.85 118.609 58.25 118.609 57.05L122.009 58.3C118.709 58.8 115.709 59.25 113.009 59.65C110.309 60.05 107.859 60.45 105.659 60.85C103.492 61.2167 101.559 61.6667 99.8586 62.2C98.4253 62.7 97.1419 63.3 96.0086 64C94.9086 64.7 94.0253 65.55 93.3586 66.55C92.7253 67.55 92.4086 68.7667 92.4086 70.2C92.4086 71.6 92.7586 72.9 93.4586 74.1C94.1586 75.2667 95.2253 76.2 96.6586 76.9C98.0919 77.6 99.9253 77.95 102.159 77.95ZM167.342 86.5C162.176 86.5 157.842 85.25 154.342 82.75C150.842 80.2167 148.192 76.8 146.392 72.5C144.592 68.2 143.692 63.35 143.692 57.95C143.692 52.55 144.576 47.7 146.342 43.4C148.142 39.1 150.776 35.7167 154.242 33.25C157.742 30.75 162.042 29.5 167.142 29.5C172.209 29.5 176.576 30.75 180.242 33.25C183.942 35.7167 186.792 39.1 188.792 43.4C190.792 47.6667 191.792 52.5167 191.792 57.95C191.792 63.35 190.792 68.2167 188.792 72.55C186.826 76.85 184.009 80.25 180.342 82.75C176.709 85.25 172.376 86.5 167.342 86.5ZM141.942 109V31H151.242V69.85H152.442V109H141.942ZM165.892 77.05C169.226 77.05 171.976 76.2 174.142 74.5C176.342 72.8 177.976 70.5167 179.042 67.65C180.142 64.75 180.692 61.5167 180.692 57.95C180.692 54.4167 180.142 51.2167 179.042 48.35C177.976 45.4833 176.326 43.2 174.092 41.5C171.859 39.8 169.009 38.95 165.542 38.95C162.276 38.95 159.576 39.75 157.442 41.35C155.342 42.95 153.776 45.1833 152.742 48.05C151.742 50.9167 151.242 54.2167 151.242 57.95C151.242 61.6833 151.742 64.9833 152.742 67.85C153.742 70.7167 155.326 72.9667 157.492 74.6C159.659 76.2333 162.459 77.05 165.892 77.05ZM226.282 86.5C220.882 86.5 216.199 85.2833 212.232 82.85C208.265 80.4167 205.199 77.0667 203.032 72.8C200.899 68.5 199.832 63.55 199.832 57.95C199.832 52.3167 200.932 47.3667 203.132 43.1C205.332 38.8 208.415 35.4667 212.382 33.1C216.349 30.7 220.982 29.5 226.282 29.5C231.682 29.5 236.365 30.7167 240.332 33.15C244.299 35.5833 247.365 38.9333 249.532 43.2C251.699 47.4667 252.782 52.3833 252.782 57.95C252.782 63.5833 251.682 68.55 249.482 72.85C247.315 77.1167 244.249 80.4667 240.282 82.9C236.315 85.3 231.649 86.5 226.282 86.5ZM226.282 76.65C231.449 76.65 235.299 74.9167 237.832 71.45C240.399 67.95 241.682 63.45 241.682 57.95C241.682 52.3167 240.382 47.8167 237.782 44.45C235.215 41.05 231.382 39.35 226.282 39.35C222.782 39.35 219.899 40.15 217.632 41.75C215.365 43.3167 213.682 45.5 212.582 48.3C211.482 51.0667 210.932 54.2833 210.932 57.95C210.932 63.6167 212.232 68.15 214.832 71.55C217.432 74.95 221.249 76.65 226.282 76.65ZM263.77 85V31H273.07V44.1L271.77 42.4C272.436 40.6667 273.303 39.0833 274.37 37.65C275.436 36.1833 276.67 34.9833 278.07 34.05C279.436 33.05 280.953 32.2833 282.62 31.75C284.32 31.1833 286.053 30.85 287.82 30.75C289.586 30.6167 291.286 30.7 292.92 31V40.8C291.153 40.3333 289.186 40.2 287.02 40.4C284.886 40.6 282.92 41.2833 281.12 42.45C279.42 43.55 278.07 44.8833 277.07 46.45C276.103 48.0167 275.403 49.7667 274.97 51.7C274.536 53.6 274.32 55.6167 274.32 57.75V85H263.77ZM303.441 22.15V12H313.891V22.15H303.441ZM303.441 85V31H313.891V85H303.441ZM344.156 86.5C340.156 86.5 336.806 85.7667 334.106 84.3C331.406 82.8 329.356 80.8333 327.956 78.4C326.59 75.9333 325.906 73.2333 325.906 70.3C325.906 67.5667 326.39 65.1667 327.356 63.1C328.323 61.0333 329.756 59.2833 331.656 57.85C333.556 56.3833 335.89 55.2 338.656 54.3C341.056 53.6 343.773 52.9833 346.806 52.45C349.84 51.9167 353.023 51.4167 356.356 50.95C359.723 50.4833 363.056 50.0167 366.356 49.55L362.556 51.65C362.623 47.4167 361.723 44.2833 359.856 42.25C358.023 40.1833 354.856 39.15 350.356 39.15C347.523 39.15 344.923 39.8167 342.556 41.15C340.19 42.45 338.54 44.6167 337.606 47.65L327.856 44.65C329.19 40.0167 331.723 36.3333 335.456 33.6C339.223 30.8667 344.223 29.5 350.456 29.5C355.29 29.5 359.49 30.3333 363.056 32C366.656 33.6333 369.29 36.2333 370.956 39.8C371.823 41.5667 372.356 43.4333 372.556 45.4C372.756 47.3667 372.856 49.4833 372.856 51.75V85H363.606V72.65L365.406 74.25C363.173 78.3833 360.323 81.4667 356.856 83.5C353.423 85.5 349.19 86.5 344.156 86.5ZM346.006 77.95C348.973 77.95 351.523 77.4333 353.656 76.4C355.79 75.3333 357.506 73.9833 358.806 72.35C360.106 70.7167 360.956 69.0167 361.356 67.25C361.923 65.65 362.24 63.85 362.306 61.85C362.406 59.85 362.456 58.25 362.456 57.05L365.856 58.3C362.556 58.8 359.556 59.25 356.856 59.65C354.156 60.05 351.706 60.45 349.506 60.85C347.34 61.2167 345.406 61.6667 343.706 62.2C342.273 62.7 340.99 63.3 339.856 64C338.756 64.7 337.873 65.55 337.206 66.55C336.573 67.55 336.256 68.7667 336.256 70.2C336.256 71.6 336.606 72.9 337.306 74.1C338.006 75.2667 339.073 76.2 340.506 76.9C341.94 77.6 343.773 77.95 346.006 77.95Z" fill="#81904C"/>
<path d="M409.281 0C405.326 0 401.459 1.17298 398.17 3.37061C394.881 5.56824 392.317 8.69181 390.804 12.3463C389.29 16.0009 388.894 20.0222 389.666 23.9018C390.437 27.7814 392.342 31.3451 395.139 34.1421C397.936 36.9392 401.5 38.844 405.379 39.6157C409.259 40.3874 413.28 39.9913 416.935 38.4776C420.589 36.9638 423.713 34.4004 425.911 31.1114C428.108 27.8224 429.281 23.9556 429.281 20C429.281 14.6957 427.174 9.60859 423.423 5.85786C419.673 2.10714 414.586 0 409.281 0ZM409.281 36C406.117 36 403.023 35.0616 400.392 33.3035C397.761 31.5454 395.71 29.0466 394.499 26.1229C393.288 23.1993 392.971 19.9823 393.589 16.8786C394.206 13.7749 395.73 10.9239 397.968 8.68629C400.205 6.44865 403.056 4.9248 406.16 4.30744C409.263 3.69007 412.481 4.00693 415.404 5.21793C418.328 6.42893 420.827 8.47969 422.585 11.1109C424.343 13.7421 425.281 16.8355 425.281 20C425.281 24.2435 423.596 28.3131 420.595 31.3137C417.594 34.3143 413.525 36 409.281 36Z" fill="#81904C"/>
<path d="M417.281 16C417.281 14.4087 416.649 12.8826 415.524 11.7574C414.399 10.6321 412.873 10 411.281 10H401.281V30H405.281V22H408.201L413.541 30H418.341L412.841 21.76C414.11 21.4184 415.231 20.6699 416.033 19.6294C416.835 18.5888 417.274 17.3138 417.281 16ZM411.281 18H405.281V14H411.281C411.812 14 412.32 14.2107 412.695 14.5858C413.071 14.9609 413.281 15.4696 413.281 16C413.281 16.5304 413.071 17.0391 412.695 17.4142C412.32 17.7893 411.812 18 411.281 18Z" fill="#81904C"/>
</svg>
