<svg width="103" height="113" viewBox="0 0 103 113" fill="none" xmlns="http://www.w3.org/2000/svg">
<path d="M46.9618 0.0539444L48.9895 0.0101146L50.1236 0.00179112L51.3109 0L52.5404 0.000737521L53.764 0.00842881L54.9545 0.0254972L56.0382 0.0539444L57.637 0.153404L58.9555 0.296694L60.2091 0.479599L61.4407 0.701277L62.7872 0.95667L64.1825 1.25421L65.5906 1.5981L67.0594 1.99594L68.6498 2.46121L70.2874 2.98043L71.9251 3.54263L73.5425 4.15372L75.1059 4.82549L76.6084 5.5293L78.0427 6.24491L79.3773 6.95883L80.57 7.65252L81.6463 8.32092L82.6281 8.96573L83.4832 9.54816L84.7393 10.4113L85.8603 11.2744L87.2785 12.4342L88.8858 13.8637L89.8523 14.7723L90.8577 15.7518L91.853 16.7598L92.7756 17.7477L93.516 18.6277L94.1668 19.4739L95.3689 21.2001L95.9944 22.1577L96.6115 23.1421L97.199 24.1266L97.746 25.0841L98.6644 26.8104L99.4748 28.5366L100.258 30.3707L100.628 31.3569L100.988 32.4206L101.347 33.6057L101.69 34.875L102.006 36.195L102.284 37.5992L102.509 39.1518L102.689 40.728L102.832 42.268L102.932 43.641L103 45.4347L102.932 47.0934L102.872 48.2145L102.784 49.4535L102.663 50.7322L102.5 52.0563L102.277 53.4142L102.014 54.7805L101.724 56.1401L101.42 57.4508L101.122 58.6468L100.812 59.7839L100.481 60.8931L100.123 61.9821L99.7247 63.0711L99.2992 64.1534L98.8518 65.2297L98.3943 66.2977L97.9503 67.3454L97.4894 68.4015L96.9964 69.4787L96.4494 70.6132L95.8078 71.8691L95.1123 73.1756L94.3863 74.4913L93.64 75.7919L92.8938 77.0317L92.1408 78.2328L91.3794 79.4053L90.6146 80.539L89.8498 81.6254L89.0884 82.6698L88.3354 83.6728L87.5892 84.6387L86.8429 85.5777L86.117 86.4729L84.7798 88.0912L83.8209 89.2914L82.8349 90.4647L82.0583 91.3068L79.8095 93.7014L79.3773 94.3487H78.9451L78.5128 95.2118L77.2973 96.466L75.9196 97.8012L75.0552 98.5699L74.1908 99.3116L72.9347 100.471L71.5976 101.685L70.49 102.616L69.2204 103.627L68.3434 104.328L67.37 105.097L66.3571 105.88L65.3306 106.648L64.3446 107.342L63.3722 107.997L62.4039 108.628L61.4407 109.237L60.4708 109.84L59.5228 110.411L57.767 111.395L56.3623 112.042L55.1737 112.474L53.2288 112.906L51.4865 113L49.5551 112.906L47.7317 112.434L46.0974 111.827L45.0304 111.382L43.9364 110.748L43.0796 110.172L42.1265 109.507L41.1659 108.817L38.912 107.174L37.6694 106.216L36.2107 105.003L34.8601 103.843L33.9552 103.061L33.1313 102.333L32.1183 101.429L30.9702 100.391L29.525 99.0689L28.1609 97.8012L26.6482 96.2907L25.9036 95.4453L25.1355 94.5645L24.2997 93.677L23.4336 92.7709L22.5135 91.7973L21.6778 90.8963L20.6513 89.6825L19.7329 88.5227L18.4903 86.9988L17.8335 86.1787L17.1397 85.2861L16.3647 84.2384L15.5999 83.1822L14.8959 82.2011L14.3303 81.4021L13.8981 80.7547V79.8916L14.8503 79.6244L16.1672 79.3927L17.6031 79.117L19.0846 78.8128L20.4242 78.4613L21.7183 78.0845L23.0234 77.69L24.271 77.3023L25.3701 76.9685L26.4456 76.628L27.5497 76.2546L28.8092 75.7919L30.4604 75.1336L32.2263 74.4028L33.9627 73.6644L35.5084 72.9868L37.3993 72.0832L38.966 71.2605L39.9545 70.7599L41.0055 70.2221L42.0497 69.67L43.072 69.1028L44.02 68.5288L44.9359 67.943L45.84 67.3437L46.7457 66.7292L47.6853 66.0945L48.6231 65.448L49.5399 64.7956L50.4195 64.1399L51.9997 62.8317L53.4449 61.5505L54.8226 60.3098L56.0382 59.177L56.9431 58.3139L57.767 57.4508L58.6989 56.3719L59.7119 55.0772L60.914 53.4184L62.089 51.6248L63.021 49.9255L63.8179 48.1723L64.1969 47.16L64.5472 46.1359L65.1145 44.2883L65.5467 42.3463L65.6117 41.0677L65.6142 39.6896L65.6252 38.3165L65.5467 36.9519L65.2538 35.5679L64.8984 34.3626L64.3311 33.0544L63.6018 31.7732L62.6968 30.5325L61.6568 29.3997L60.5223 28.4692L59.2797 27.6735L57.902 26.9587L56.4704 26.3788L55.1873 25.9742L53.661 25.7315L52.5484 25.6632L51.3244 25.6371L50.086 25.6565L48.9068 25.7315L47.0429 26.0821L45.4491 26.5946L44.058 27.2015L42.8559 27.8892L41.8294 28.604L40.911 29.3997L40.006 30.3033L39.1821 31.3417L38.4663 32.5959L37.8855 33.931L37.4803 35.1583L37.2372 36.5204L37.1427 38.314L37.2372 40.1886L37.5479 41.8069L38.1016 43.4252L38.9795 45.2728L40.0466 47.0934L41.1676 48.6309L42.4237 50.1143L43.164 50.953L43.9364 51.8001L44.7063 52.6118L45.4491 53.351L46.7457 54.4569L47.8263 55.293L49.1229 56.3719L48.6907 57.4508L47.4751 58.651L45.8813 60.0401L44.9646 60.7768L44.0445 61.4831L42.4237 62.6294L41.3432 62.8452L40.3032 61.9821L39.1821 60.9032L38.1827 60.0536L37.4533 59.3928V58.9612H37.0211L36.4133 58.3139L35.5084 57.235L34.1307 55.6032L33.3938 54.692L32.6991 53.7826L31.6591 52.1642L30.7541 50.5459L29.8357 48.8466L29.0253 47.0934L28.404 45.1919L27.9448 43.4252L27.7042 42.2924L27.5126 41.0517L27.4476 39.7612L27.4451 38.4219L27.4594 36.9907L27.5126 35.6572L27.7557 33.8096L28.1609 32.2048L28.7282 30.4516L29.4575 28.7524L30.3624 27.188L31.4024 25.7315L32.618 24.3424L33.7796 23.1421L35.2923 21.6317L36.5754 20.6742L38.1016 19.6897L39.7359 18.7861L41.5593 17.9635L42.6263 17.5833L43.7338 17.2352L44.8405 16.9251L45.8813 16.6688L47.5291 16.3721L49.1229 16.2373L50.9868 16.1698L53.0127 16.2373L54.1321 16.3376L55.2818 16.48L56.4315 16.6612L57.5509 16.8846L59.5768 17.4645L61.4407 18.1793L63.0885 18.9615L64.6823 19.9055L65.5838 20.5233L66.4921 21.1867L68.1399 22.4948L69.1799 23.4254L70.0848 24.4368L71.3004 25.9742L72.462 27.6735L73.2994 29.2648L73.9747 30.9101L74.5825 32.7847L75.0552 34.5784L75.3388 35.8595L75.4874 37.1677L75.5414 39.0288L75.4874 41.0517L75.3388 42.9802L75.0552 44.9357L74.5555 47.026L73.9747 49.0354L73.5155 50.6403L72.8942 52.2721L72.3581 53.3409L71.7461 54.4703L71.1147 55.5796L70.517 56.5877L69.6391 57.9767L68.7882 59.177L67.7752 60.5391L66.6272 61.9821L65.2901 63.5735L64.5734 64.3894L63.8179 65.2188L63.0016 66.0751L62.1701 66.918L61.3445 67.7297L60.5763 68.4554L59.3878 69.4669L58.1992 70.3974L56.7945 71.5707L55.9656 72.2307L54.9576 72.9868L53.6121 73.9249L52.1213 74.9288L50.5917 75.9343L49.1229 76.8708L47.8972 77.6116L46.7728 78.2598L45.6711 78.8709L44.5847 79.4601L43.478 80.0695L42.3562 80.6738L41.225 81.2588L40.0466 81.8336L38.7601 82.4085L37.4398 82.9665L36.1407 83.4941L34.8601 83.9914L33.5863 84.4617L32.4019 84.8815L30.538 85.5019H30.1058L30.8082 86.4459L32.0507 87.8754L32.9869 88.8447L34.0092 89.8713L34.9892 90.8457L35.9406 91.7594L36.8472 92.5601L37.6694 93.2698L38.9255 94.4296L40.2627 95.6434L41.4647 96.6414L42.6398 97.5854L43.7473 98.5159L45.0169 99.5274L45.9227 100.203L46.8943 100.903L47.8018 101.555L48.6907 102.117L50.4195 102.764H52.5805L54.0122 102.157L55.606 101.254L57.2402 100.188L58.1105 99.5746L59.0636 98.8801L60.1855 98.0507L61.3597 97.1673L62.5187 96.2789L63.6018 95.4276L64.5025 94.6842L65.2901 94.0116L66.6272 92.8383L67.4646 92.1117L68.356 91.3278L69.2432 90.5178L70.1254 89.696L71.0126 88.8725L71.8137 88.0912L72.8942 86.7965L75.4874 84.2072L76.2497 83.3542L77.7033 81.6617L78.4183 80.8087L79.2143 79.8394L80.0256 78.8128L80.803 77.7591L81.5653 76.6819L82.3217 75.5828L83.051 74.4972L83.7263 73.479L84.3746 72.4743L85.0094 71.4544L85.6442 70.3974L86.3061 69.2595L86.9679 68.0778L87.6128 66.8776L88.2375 65.6503L88.8351 64.3826L89.399 63.1149L89.9266 61.8666L90.3985 60.6874L91.1143 58.705L91.6951 56.8034L91.9982 55.7026L92.2894 54.5782L92.7756 52.4879L93.0458 50.9909L93.2078 49.6828L93.3429 48.2667L93.4239 46.8777L93.4645 45.7179L93.4239 44.2883L93.3725 43.1968L93.2889 41.9552L93.1673 40.653L92.9917 39.3255L92.7351 38.0451L92.4245 36.7901L92.0742 35.5502L91.6951 34.3626L91.3093 33.2761L90.8982 32.2453L90.4542 31.2473L89.9663 30.2628L89.4109 29.2513L88.8183 28.2534L88.2062 27.29L87.5892 26.3788L86.4006 24.7874L85.212 23.3579L84.0505 22.0228L82.8349 20.7686L81.5113 19.5818L80.0256 18.395L78.3778 17.1408L77.4425 16.4935L76.3518 15.8057L74.964 15.0235L73.4614 14.2278L71.9454 13.4625L70.517 12.7848L69.3589 12.2959L68.329 11.9082L66.4111 11.2744L64.6012 10.6945L62.7373 10.1955L61.575 9.94515L60.3737 9.70999L59.2738 9.50433L58.1992 9.33238L57.1788 9.21648L56.0382 9.1166L54.0012 9.07277L52.8514 9.06445L51.6486 9.06266L50.4103 9.06339L49.1879 9.07109L48.01 9.08815L46.9618 9.1166L45.5394 9.21606L44.4496 9.35935L42.4237 9.76393L41.1549 10.0421L39.8169 10.3573L38.5018 10.7012L37.2372 11.0586L36.1077 11.4025L35.0357 11.7599L33.983 12.1434L32.9152 12.569L31.7595 13.0689L30.5921 13.6075L29.455 14.1638L28.377 14.7268L26.5266 15.8192L24.9194 16.8846L23.5552 17.8556L22.3261 18.8266L21.0025 20.0269L19.949 20.9844H19.5168V21.4159H19.0846L18.6524 22.279L17.1397 23.7895L15.8565 25.4213L15.1787 26.3417L14.5464 27.2419L13.628 28.7119L12.8176 30.2628L12.3584 31.249L11.8992 32.2992L11.4686 33.3503L11.0888 34.3626L10.5755 36.0888L10.2244 37.5992L9.96774 38.84L9.79216 39.9728L9.65709 41.0382L9.57606 42.3463L9.50852 44.2883L9.51612 45.4144L9.57606 46.6619L9.72378 48.0847L9.92722 49.5749L10.1695 51.0735L10.4405 52.4879L10.7182 53.6595L11.0212 54.7266L11.3564 55.7608L11.7371 56.8034L12.1921 57.9472L12.6825 59.1096L13.1916 60.2533L13.682 61.3348L14.4789 63.1419L15.4108 65.003L16.1309 66.258L16.9236 67.5788L17.6664 68.7985L18.4363 69.9659L19.4087 71.14L20.1651 72.1236L19.949 72.9868L18.4059 73.4883L16.4373 73.9982L14.4755 74.5132L12.8176 74.9288L11.7371 75.1445H10.0083L9.28567 74.1727L8.60359 72.8654L7.86834 71.4772L7.19893 70.1816L6.32101 68.6442L5.4701 66.945L4.83446 65.4927L4.14647 63.8567L3.47537 62.2046L2.87687 60.6874L2.13402 58.678L1.58025 56.8034L1.27889 55.5307L0.985969 54.1736L0.732724 52.9371L0.499738 51.6248L0.257466 50.0713L0.0675321 48.3881L0.00253245 46.6265L0 44.8008L0.0135064 42.8563L0.0675321 41.0517L0.175584 39.7123L0.324154 38.5837L0.715841 36.5204L0.953891 35.4566L1.21558 34.403L1.79635 32.4206L2.40414 30.6674L3.09297 28.9681L3.90336 27.134L4.82179 25.2999L5.8888 23.5063L6.98282 21.8475L7.92827 20.5258L8.92775 19.2581L10.1974 17.7342L11.521 16.2373L12.7231 14.9831L13.8981 13.8637L15.1137 12.8388L17.1971 11.1926L18.2202 10.4113L19.1808 9.74118L20.1921 9.07614L21.3351 8.34284L22.5422 7.60616L23.7764 6.90994L25.0274 6.24406L26.2869 5.60432L27.5126 5.01683L28.6438 4.517L29.7276 4.0728L30.793 3.66569L31.8346 3.29061L33.8606 2.60282L34.8778 2.29264L35.9406 1.99594L37.1182 1.69925L38.3312 1.41604L39.5316 1.1539L40.6949 0.917055L42.7884 0.539444L44.5847 0.269722L45.6137 0.148347L46.9618 0.0539444Z" fill="#81904C"/>
</svg>
